<?xml version="1.0" encoding="utf-8"?>
<!-- Generator: Adobe Illustrator 27.1.1, SVG Export Plug-In . SVG Version: 6.00 Build 0)  -->
<svg version="1.1" id="Layer_1" xmlns="http://www.w3.org/2000/svg" xmlns:xlink="http://www.w3.org/1999/xlink" x="0px" y="0px"
	 viewBox="0 0 133.9 54" style="enable-background:new 0 0 133.9 54;" xml:space="preserve">
<style type="text/css">
	.st0{fill:#1E3A8A;}
</style>
<path class="st0" d="M58.8,35.6c-1.7-1-3.5-2.1-5.2-3c-5.5-3-11.1-6-16.6-9.1c-3-1.6-4.5-4.3-5.3-7.5c-1-4.5-0.2-8.7,2.6-12.5
	C41.6,8.7,48.9,14,56.3,19.2l0.1-0.1c-1-0.9-2-1.7-3.1-2.6C46.9,11.1,40.5,5.8,34.1,0.4c-0.7-0.6-1.4-0.5-2.1,0
	C27.2,4.2,22.3,8,17.5,11.8c-4.6,3.6-9.1,7.1-13.7,10.7C-0.4,25.8-1.3,33,2,37.3c0.2,0.2,0.7,0.3,0.9,0.2c6-2.4,12-4.9,18.1-7.4
	c3.8-1.6,7.7-3.2,11.5-4.7c0.4-0.1,0.9-0.1,1.2,0.1c8,3.3,16,6.6,24,9.9c0.3,0.1,0.6,0.2,0.9,0.3C58.7,35.7,58.7,35.6,58.8,35.6z"/>
<path class="st0" d="M58,53.1c-3.2-0.5-6.3-1-9.5-1.4c-4.2-0.6-8.4-1.2-12.5-1.8c-1.3-0.2-2.2-0.8-2.8-1.9
	c-2.7-5.1-2.6-10.3,0.1-15.4c0.1-0.2,0.2-0.4,0.4-0.6c0.9-1.3,0.9-1.3,2.4-0.8c6.7,2,13.4,4.1,20.2,5.9c-1.1-0.4-2.1-0.9-3.2-1.3
	c-5.8-2.4-11.6-4.7-17.4-7.2c-1.8-0.8-3.4-0.8-5.2-0.1c-9.1,3.6-18.2,7-27.3,10.6c-0.7,0.3-1.4,0.9-1.7,1.6c-1.9,3.9-2,7.8-0.1,11.7
	c0.3,0.5,0.5,0.8,1.2,0.8c18.3,0,36.6,0,54.9,0C57.6,53.2,57.8,53.2,58,53.1L58,53.1z"/>
<g>
	<path class="st0" d="M69.5,27.9c-0.5,0-0.9-0.1-1.2-0.3c-0.3-0.2-0.4-0.5-0.4-0.8V8.2c0-0.4,0.2-0.7,0.5-0.9
		C68.7,7.1,69.1,7,69.5,7H75c1,0,1.9,0.1,2.8,0.4c0.9,0.3,1.6,0.8,2.1,1.5c0.6,0.7,0.8,1.8,0.8,3.1c0,1.2-0.2,2.1-0.7,2.9
		c-0.4,0.8-1,1.3-1.8,1.6c0.6,0.2,1.1,0.5,1.5,0.9s0.8,0.9,1,1.5c0.2,0.6,0.4,1.4,0.4,2.3v0.6c0,1.5-0.3,2.7-0.8,3.6
		c-0.5,0.9-1.2,1.5-2.1,1.9c-0.9,0.4-1.8,0.6-2.9,0.6H69.5z M71.6,15.1h3.2c0.8,0,1.4-0.2,1.7-0.7c0.4-0.5,0.6-1,0.6-1.8
		c0-0.5-0.1-0.9-0.3-1.3c-0.2-0.4-0.5-0.6-0.8-0.8c-0.3-0.2-0.8-0.3-1.2-0.3h-3.2V15.1z M71.6,24.6h3.2c0.9,0,1.6-0.2,2.1-0.7
		c0.5-0.5,0.7-1.3,0.7-2.4v-0.5c0-1.1-0.2-1.9-0.7-2.4c-0.5-0.4-1.2-0.7-2.1-0.7h-3.2V24.6z"/>
	<path class="st0" d="M90.4,28c-1.3,0-2.4-0.2-3.4-0.6c-1-0.4-1.8-1.1-2.4-2.1c-0.6-1-0.9-2.2-0.9-3.8v-7.9c0-1.6,0.3-2.9,0.9-3.8
		c0.6-1,1.4-1.7,2.4-2.1C88,7.2,89.1,7,90.4,7s2.4,0.2,3.4,0.6c1,0.4,1.8,1.1,2.4,2.1c0.6,1,0.9,2.2,0.9,3.8v7.9
		c0,1.6-0.3,2.9-0.9,3.8c-0.6,1-1.4,1.7-2.4,2.1C92.8,27.8,91.6,28,90.4,28z M90.4,24.8c0.9,0,1.7-0.3,2.2-0.8
		c0.5-0.5,0.8-1.4,0.8-2.5v-7.9c0-1.1-0.3-2-0.8-2.5c-0.5-0.5-1.3-0.8-2.2-0.8c-0.9,0-1.7,0.3-2.2,0.8c-0.5,0.5-0.8,1.4-0.8,2.5v7.9
		c0,1.1,0.3,2,0.8,2.5C88.7,24.5,89.4,24.8,90.4,24.8z"/>
	<path class="st0" d="M106.8,28c-1.3,0-2.4-0.2-3.4-0.6c-1-0.4-1.8-1.1-2.4-2.1c-0.6-1-0.9-2.2-0.9-3.8v-7.9c0-1.6,0.3-2.9,0.9-3.8
		c0.6-1,1.4-1.7,2.4-2.1c1-0.4,2.1-0.6,3.4-0.6s2.4,0.2,3.4,0.6s1.8,1.1,2.4,2.1c0.6,1,0.9,2.2,0.9,3.8v7.9c0,1.6-0.3,2.9-0.9,3.8
		c-0.6,1-1.4,1.7-2.4,2.1S108,28,106.8,28z M106.8,24.8c0.9,0,1.7-0.3,2.2-0.8c0.5-0.5,0.8-1.4,0.8-2.5v-7.9c0-1.1-0.3-2-0.8-2.5
		c-0.5-0.5-1.3-0.8-2.2-0.8c-0.9,0-1.7,0.3-2.2,0.8c-0.5,0.5-0.8,1.4-0.8,2.5v7.9c0,1.1,0.3,2,0.8,2.5
		C105.1,24.5,105.8,24.8,106.8,24.8z"/>
	<path class="st0" d="M118.5,27.9c-0.5,0-0.9-0.1-1.3-0.3c-0.4-0.2-0.6-0.5-0.6-0.9V8.2c0-0.4,0.2-0.7,0.6-0.9
		c0.4-0.2,0.8-0.3,1.3-0.3c0.5,0,0.9,0.1,1.3,0.3s0.6,0.5,0.6,0.9v7.8l6.2-8.4c0.2-0.4,0.6-0.5,1-0.5c0.3,0,0.7,0.1,1,0.3
		c0.3,0.2,0.6,0.4,0.8,0.7c0.2,0.3,0.3,0.6,0.3,0.9c0,0.1,0,0.2-0.1,0.3c0,0.1-0.1,0.3-0.2,0.4l-5.1,6.4l6.2,9.5
		c0.1,0.2,0.2,0.4,0.2,0.7c0,0.3-0.1,0.6-0.3,0.9c-0.2,0.3-0.5,0.5-0.8,0.7S129,28,128.6,28c-0.3,0-0.5-0.1-0.7-0.2
		c-0.2-0.1-0.4-0.3-0.6-0.5l-5.4-8.1l-1.5,1.9v5.6c0,0.4-0.2,0.7-0.6,0.9S119,27.9,118.5,27.9z"/>
	<path class="st0" d="M74.3,52.4c-0.5,0-1-0.1-1.5-0.3s-0.8-0.5-0.9-0.9l-5.5-18c0-0.1-0.1-0.2-0.1-0.3c0-0.3,0.1-0.6,0.4-0.8
		c0.2-0.2,0.6-0.4,0.9-0.5s0.7-0.2,1.1-0.2c0.3,0,0.6,0.1,0.8,0.2s0.4,0.3,0.4,0.6l4.4,15.5l4.3-15.5c0.1-0.3,0.3-0.5,0.5-0.6
		s0.5-0.2,0.8-0.2c0.3,0,0.7,0.1,1.1,0.2c0.4,0.1,0.7,0.3,0.9,0.5s0.4,0.5,0.4,0.8c0,0,0,0.1,0,0.1c0,0,0,0.1,0,0.2l-5.5,18
		c-0.1,0.4-0.4,0.7-0.9,0.9S74.9,52.4,74.3,52.4z"/>
	<path class="st0" d="M86.1,52.2c-0.5,0-0.9-0.1-1.3-0.3c-0.4-0.2-0.6-0.5-0.6-0.9V32.5c0-0.4,0.2-0.7,0.6-0.9
		c0.4-0.2,0.8-0.3,1.3-0.3c0.5,0,0.9,0.1,1.3,0.3c0.4,0.2,0.6,0.5,0.6,0.9V51c0,0.4-0.2,0.7-0.6,0.9C87,52.1,86.6,52.2,86.1,52.2z"
		/>
	<path class="st0" d="M97,52.5c-1.2,0-2.4-0.2-3.4-0.5c-1-0.4-1.8-0.8-2.4-1.4c-0.6-0.5-0.9-1.1-0.9-1.6c0-0.3,0.1-0.6,0.2-0.9
		c0.1-0.3,0.3-0.6,0.6-0.8s0.5-0.3,0.8-0.3c0.3,0,0.6,0.1,0.9,0.3s0.6,0.5,0.9,0.8c0.3,0.3,0.8,0.6,1.3,0.8c0.5,0.2,1.1,0.3,1.8,0.3
		c0.6,0,1.1-0.1,1.6-0.3s0.9-0.5,1.2-0.8s0.4-0.8,0.4-1.4c0-0.6-0.2-1.1-0.5-1.5c-0.3-0.4-0.8-0.8-1.3-1.1c-0.6-0.3-1.2-0.6-1.8-0.9
		c-0.6-0.3-1.3-0.6-2-0.9c-0.7-0.3-1.3-0.7-1.8-1.2s-1-1-1.3-1.7c-0.3-0.7-0.5-1.5-0.5-2.5c0-1.1,0.2-2,0.6-2.7
		c0.4-0.7,1-1.3,1.6-1.8c0.7-0.4,1.4-0.8,2.2-1c0.8-0.2,1.6-0.3,2.5-0.3c0.4,0,1,0,1.6,0.1c0.6,0.1,1.2,0.2,1.8,0.4
		c0.6,0.2,1.1,0.4,1.5,0.7c0.4,0.3,0.6,0.7,0.6,1.2c0,0.2-0.1,0.5-0.2,0.8c-0.1,0.3-0.3,0.6-0.5,0.8c-0.2,0.2-0.5,0.4-0.8,0.4
		c-0.3,0-0.6-0.1-0.9-0.3c-0.3-0.2-0.7-0.4-1.1-0.5s-1.1-0.3-1.9-0.3c-0.7,0-1.2,0.1-1.7,0.3c-0.5,0.2-0.9,0.4-1.1,0.7
		c-0.2,0.3-0.4,0.7-0.4,1.2c0,0.5,0.2,0.9,0.5,1.3c0.3,0.3,0.8,0.6,1.3,0.9s1.1,0.5,1.8,0.8s1.3,0.6,2,0.9c0.7,0.4,1.3,0.8,1.8,1.3
		c0.6,0.5,1,1.1,1.3,1.8c0.3,0.7,0.5,1.6,0.5,2.7c0,1.4-0.3,2.5-0.9,3.4s-1.4,1.6-2.4,2.1C99.5,52.2,98.3,52.5,97,52.5z"/>
	<path class="st0" d="M112.1,52.2c-0.5,0-0.9-0.1-1.3-0.3c-0.4-0.2-0.6-0.5-0.6-0.9V34.7H106c-0.4,0-0.6-0.2-0.9-0.5
		c-0.2-0.3-0.3-0.7-0.3-1.2c0-0.4,0.1-0.8,0.3-1.1c0.2-0.4,0.5-0.5,0.9-0.5h12.1c0.4,0,0.7,0.2,0.9,0.5c0.2,0.4,0.3,0.7,0.3,1.1
		c0,0.4-0.1,0.8-0.3,1.2c-0.2,0.3-0.5,0.5-0.9,0.5h-4.2V51c0,0.4-0.2,0.7-0.6,0.9C112.9,52.1,112.5,52.2,112.1,52.2z"/>
	<path class="st0" d="M120.4,52.2c-0.3,0-0.7-0.1-1.1-0.2c-0.4-0.1-0.7-0.3-0.9-0.5S118,51,118,50.7c0-0.1,0-0.2,0-0.3l5.5-18
		c0.1-0.4,0.4-0.7,0.9-0.9c0.5-0.2,1-0.3,1.5-0.3c0.6,0,1.1,0.1,1.5,0.3c0.5,0.2,0.8,0.5,0.9,0.9l5.5,18c0,0.1,0.1,0.2,0.1,0.3
		c0,0.3-0.1,0.5-0.4,0.8c-0.3,0.2-0.6,0.4-0.9,0.6c-0.4,0.1-0.7,0.2-1.1,0.2c-0.3,0-0.6-0.1-0.8-0.2c-0.2-0.1-0.4-0.3-0.4-0.6
		l-1.1-3.8h-6.6l-1.1,3.8c-0.1,0.3-0.2,0.5-0.5,0.6C120.9,52.2,120.7,52.2,120.4,52.2z M123.5,44.8h5L126,36L123.5,44.8z"/>
</g>
</svg>
