<svg width="50" height="50" viewBox="0 0 50 50" fill="none" xmlns="http://www.w3.org/2000/svg">
<rect width="50" height="50" rx="25" fill="#25D366"/>
<path fill-rule="evenodd" clip-rule="evenodd" d="M13.4884 24.5C13.4884 18.0172 18.7985 12.7619 25.3488 12.7619C31.8992 12.7619 37.2093 18.0172 37.2093 24.5C37.2093 30.9827 31.8992 36.238 25.3488 36.238C23.0155 36.238 20.8436 35.5727 19.0111 34.4236C18.6701 34.2098 18.2522 34.1527 17.8654 34.2669L13.8479 35.4535L15.3606 31.9506C15.5393 31.5366 15.503 31.0624 15.2631 30.6799C14.1382 28.8859 13.4884 26.7701 13.4884 24.5ZM25.3488 10C17.2573 10 10.6977 16.4919 10.6977 24.5C10.6977 27.0383 11.3579 29.4276 12.5181 31.5051L10.1123 37.0763C9.8996 37.5689 9.99388 38.1386 10.3542 38.5383C10.7145 38.9381 11.2758 39.0955 11.7944 38.9422L18.0727 37.088C20.2174 38.3046 22.7028 38.9999 25.3488 38.9999C33.4405 38.9999 40 32.5081 40 24.5C40 16.4919 33.4405 10 25.3488 10ZM28.5477 27.5138L26.7139 28.7921C25.8551 28.3079 24.9055 27.6321 23.9531 26.6895C22.9629 25.7095 22.2289 24.6979 21.6876 23.7699L22.853 22.7909C23.3531 22.3708 23.49 21.6626 23.1819 21.0894L21.697 18.3275C21.497 17.9556 21.1365 17.6944 20.7179 17.6181C20.2993 17.5418 19.8683 17.6587 19.5476 17.9358L19.1074 18.316C18.0487 19.2305 17.4226 20.7332 17.9415 22.2547C18.4795 23.832 19.6277 26.3145 21.9798 28.6424C24.5104 31.1469 27.0809 32.1332 28.5841 32.5162C29.7953 32.8247 30.9414 32.4112 31.749 31.7599L32.5744 31.0943C32.9274 30.8097 33.1179 30.3723 33.0847 29.9228C33.0513 29.4733 32.7985 29.0681 32.4072 28.8374L30.0654 27.4564C29.5924 27.1776 28.998 27.2 28.5477 27.5138Z" fill="white"/>
</svg>
